<svg width="50" height="62" viewBox="0 0 50 62" fill="none" xmlns="http://www.w3.org/2000/svg">
<path d="M40.142 16.7709C37.3712 15.4793 34.3712 14.5418 31.2462 14.0001C31.2188 13.9992 31.1915 14.0044 31.1663 14.0152C31.1411 14.026 31.1186 14.0422 31.1003 14.0626C30.7253 14.7501 30.2878 15.6459 29.9962 16.3334C26.6816 15.8334 23.3108 15.8334 19.9962 16.3334C19.7045 15.6251 19.267 14.7501 18.8712 14.0626C18.8503 14.0209 18.7878 14.0001 18.7253 14.0001C15.6003 14.5418 12.6212 15.4793 9.82951 16.7709C9.80867 16.7709 9.78784 16.7918 9.76701 16.8126C4.10034 25.2918 2.53784 33.5418 3.30868 41.7084C3.30868 41.7501 3.32951 41.7918 3.37118 41.8126C7.12117 44.5626 10.7253 46.2293 14.2878 47.3334C14.3503 47.3543 14.4128 47.3334 14.4337 47.2918C15.267 46.1459 16.017 44.9376 16.6628 43.6668C16.7045 43.5834 16.6628 43.5001 16.5795 43.4793C15.392 43.0209 14.267 42.4793 13.1628 41.8543C13.0795 41.8126 13.0795 41.6876 13.142 41.6251C13.3712 41.4584 13.6003 41.2709 13.8295 41.1043C13.8712 41.0626 13.9337 41.0626 13.9753 41.0834C21.142 44.3543 28.8712 44.3543 35.9545 41.0834C35.9962 41.0626 36.0587 41.0626 36.1003 41.1043C36.3295 41.2918 36.5587 41.4584 36.7878 41.6459C36.8712 41.7084 36.8712 41.8334 36.767 41.8751C35.6837 42.5209 34.5378 43.0418 33.3503 43.5001C33.267 43.5209 33.2462 43.6251 33.267 43.6876C33.9337 44.9584 34.6837 46.1668 35.4962 47.3126C35.5587 47.3334 35.6212 47.3543 35.6837 47.3334C39.267 46.2293 42.8712 44.5626 46.6212 41.8126C46.6628 41.7918 46.6837 41.7501 46.6837 41.7084C47.6003 32.2709 45.1628 24.0834 40.2253 16.8126C40.2045 16.7918 40.1837 16.7709 40.142 16.7709ZM17.7462 36.7293C15.6003 36.7293 13.8087 34.7501 13.8087 32.3126C13.8087 29.8751 15.5587 27.8959 17.7462 27.8959C19.9545 27.8959 21.7045 29.8959 21.6837 32.3126C21.6837 34.7501 19.9337 36.7293 17.7462 36.7293ZM32.267 36.7293C30.1212 36.7293 28.3295 34.7501 28.3295 32.3126C28.3295 29.8751 30.0795 27.8959 32.267 27.8959C34.4753 27.8959 36.2253 29.8959 36.2045 32.3126C36.2045 34.7501 34.4753 36.7293 32.267 36.7293Z" fill="white"/>
</svg>
