<svg width="50" height="62" viewBox="0 0 50 62" fill="none" xmlns="http://www.w3.org/2000/svg">
<path d="M16.2494 10H33.7494C40.416 10 45.8327 15.4167 45.8327 22.0833V39.5833C45.8327 42.788 44.5596 45.8615 42.2936 48.1275C40.0275 50.3936 36.9541 51.6667 33.7494 51.6667H16.2494C9.58268 51.6667 4.16602 46.25 4.16602 39.5833V22.0833C4.16602 18.8786 5.43908 15.8052 7.70514 13.5391C9.97121 11.2731 13.0447 10 16.2494 10ZM15.8327 14.1667C13.8436 14.1667 11.9359 14.9568 10.5294 16.3634C9.12286 17.7699 8.33268 19.6775 8.33268 21.6667V40C8.33268 44.1458 11.6868 47.5 15.8327 47.5H34.166C36.1551 47.5 38.0628 46.7098 39.4693 45.3033C40.8758 43.8968 41.666 41.9891 41.666 40V21.6667C41.666 17.5208 38.3119 14.1667 34.166 14.1667H15.8327ZM35.9369 17.2917C36.6275 17.2917 37.2899 17.566 37.7783 18.0544C38.2667 18.5428 38.541 19.2052 38.541 19.8958C38.541 20.5865 38.2667 21.2489 37.7783 21.7373C37.2899 22.2256 36.6275 22.5 35.9369 22.5C35.2462 22.5 34.5838 22.2256 34.0954 21.7373C33.607 21.2489 33.3327 20.5865 33.3327 19.8958C33.3327 19.2052 33.607 18.5428 34.0954 18.0544C34.5838 17.566 35.2462 17.2917 35.9369 17.2917ZM24.9994 20.4167C27.762 20.4167 30.4115 21.5141 32.365 23.4676C34.3186 25.4211 35.416 28.0707 35.416 30.8333C35.416 33.596 34.3186 36.2455 32.365 38.199C30.4115 40.1525 27.762 41.25 24.9994 41.25C22.2367 41.25 19.5872 40.1525 17.6337 38.199C15.6802 36.2455 14.5827 33.596 14.5827 30.8333C14.5827 28.0707 15.6802 25.4211 17.6337 23.4676C19.5872 21.5141 22.2367 20.4167 24.9994 20.4167ZM24.9994 24.5833C23.3417 24.5833 21.752 25.2418 20.5799 26.4139C19.4078 27.586 18.7493 29.1757 18.7493 30.8333C18.7493 32.4909 19.4078 34.0807 20.5799 35.2528C21.752 36.4249 23.3417 37.0833 24.9994 37.0833C26.657 37.0833 28.2467 36.4249 29.4188 35.2528C30.5909 34.0807 31.2494 32.4909 31.2494 30.8333C31.2494 29.1757 30.5909 27.586 29.4188 26.4139C28.2467 25.2418 26.657 24.5833 24.9994 24.5833Z" fill="white"/>
</svg>
